<svg width="32" height="32" viewBox="0 0 32 32" fill="none" xmlns="http://www.w3.org/2000/svg">
  <rect width="32" height="32" rx="8" fill="#7BAFB0"/>
  <path d="M8 12C8 10.8954 8.89543 10 10 10H14C15.1046 10 16 10.8954 16 12V16C16 17.1046 15.1046 18 14 18H10C8.89543 18 8 17.1046 8 16V12Z" fill="white"/>
  <path d="M18 14C18 12.8954 18.8954 12 20 12H24C25.1046 12 26 12.8954 26 14V20C26 21.1046 25.1046 22 24 22H20C18.8954 22 18 21.1046 18 20V14Z" fill="#D8A7B1"/>
  <circle cx="12" cy="24" r="2" fill="#D9C589"/>
  <circle cx="20" cy="8" r="2" fill="#D9C589"/>
</svg> 